<svg width="64" height="64" viewBox="0 0 64 64" xmlns="http://www.w3.org/2000/svg">
  <defs>
    <linearGradient id="tagGradient" x1="0%" y1="0%" x2="100%" y2="100%">
      <stop offset="0%" stop-color="#2C7A7B"/>
      <stop offset="100%" stop-color="#38B2AC"/>
    </linearGradient>
  </defs>
  <path fill="url(#tagGradient)" d="M36.5 9H18a4 4 0 0 0-4 4v18.5a4 4 0 0 0 1.17 2.83l16.5 16.5a4 4 0 0 0 5.66 0l18.5-18.5a4 4 0 0 0 0-5.66L41.33 9.83A4 4 0 0 0 38.5 9h-2z"/>
  <circle cx="23" cy="23" r="4" fill="#ffffff" opacity="0.85"/>
  <path d="M35 30l6.5 6.5" stroke="#ffffff" stroke-width="3" stroke-linecap="round"/>
  <path d="M28 37l6.5 6.5" stroke="#ffffff" stroke-width="3" stroke-linecap="round"/>
</svg>
